<svg width="20" height="20" viewBox="0 0 20 20" fill="none" xmlns="http://www.w3.org/2000/svg">
<path d="M10 -0.000488281C12.717 -0.000488281 13.056 0.00951166 14.122 0.0595117C15.187 0.109512 15.912 0.276512 16.55 0.524512C17.21 0.778512 17.766 1.12251 18.322 1.67751C18.8305 2.17741 19.224 2.7821 19.475 3.44951C19.722 4.08651 19.89 4.81251 19.94 5.87751C19.987 6.94351 20 7.28251 20 9.99951C20 12.7165 19.99 13.0555 19.94 14.1215C19.89 15.1865 19.722 15.9115 19.475 16.5495C19.2247 17.2173 18.8311 17.8221 18.322 18.3215C17.822 18.8298 17.2173 19.2233 16.55 19.4745C15.913 19.7215 15.187 19.8895 14.122 19.9395C13.056 19.9865 12.717 19.9995 10 19.9995C7.283 19.9995 6.944 19.9895 5.878 19.9395C4.813 19.8895 4.088 19.7215 3.45 19.4745C2.78233 19.224 2.17753 18.8305 1.678 18.3215C1.16941 17.8217 0.775931 17.217 0.525 16.5495C0.277 15.9125 0.11 15.1865 0.0599999 14.1215C0.0129999 13.0555 0 12.7165 0 9.99951C0 7.28251 0.00999994 6.94351 0.0599999 5.87751C0.11 4.81151 0.277 4.08751 0.525 3.44951C0.775236 2.78169 1.1688 2.17683 1.678 1.67751C2.17767 1.16874 2.78243 0.775241 3.45 0.524512C4.088 0.276512 4.812 0.109512 5.878 0.0595117C6.944 0.0125117 7.283 -0.000488281 10 -0.000488281ZM10 4.99951C8.67392 4.99951 7.40215 5.5263 6.46447 6.46398C5.52678 7.40166 5 8.67343 5 9.99951C5 11.3256 5.52678 12.5974 6.46447 13.535C7.40215 14.4727 8.67392 14.9995 10 14.9995C11.3261 14.9995 12.5979 14.4727 13.5355 13.535C14.4732 12.5974 15 11.3256 15 9.99951C15 8.67343 14.4732 7.40166 13.5355 6.46398C12.5979 5.5263 11.3261 4.99951 10 4.99951ZM16.5 4.74951C16.5 4.41799 16.3683 4.10005 16.1339 3.86563C15.8995 3.63121 15.5815 3.49951 15.25 3.49951C14.9185 3.49951 14.6005 3.63121 14.3661 3.86563C14.1317 4.10005 14 4.41799 14 4.74951C14 5.08103 14.1317 5.39897 14.3661 5.6334C14.6005 5.86782 14.9185 5.99951 15.25 5.99951C15.5815 5.99951 15.8995 5.86782 16.1339 5.6334C16.3683 5.39897 16.5 5.08103 16.5 4.74951ZM10 6.99951C10.7956 6.99951 11.5587 7.31558 12.1213 7.87819C12.6839 8.4408 13 9.20386 13 9.99951C13 10.7952 12.6839 11.5582 12.1213 12.1208C11.5587 12.6834 10.7956 12.9995 10 12.9995C9.20435 12.9995 8.44129 12.6834 7.87868 12.1208C7.31607 11.5582 7 10.7952 7 9.99951C7 9.20386 7.31607 8.4408 7.87868 7.87819C8.44129 7.31558 9.20435 6.99951 10 6.99951Z" fill="#151530"/>
</svg>
